<svg width="35" height="42" viewBox="0 0 35 42" fill="none" xmlns="http://www.w3.org/2000/svg">
<path d="M17.3999 41.4998C13.8999 41.4998 10.4999 41.4998 6.99992 41.4998C6.09992 41.4998 5.79992 41.1998 5.79992 40.2998C5.79992 39.5998 5.79992 38.8998 5.79992 38.1998C5.79992 36.6998 7.09992 35.4998 8.59992 35.4998C8.99992 35.4998 9.49992 35.4998 9.89992 35.4998C10.2999 35.4998 10.3999 35.3998 10.3999 34.9998C10.3999 33.8998 10.3999 32.6998 10.3999 31.5998C10.3999 30.6998 10.5999 30.3998 11.4999 30.1998C12.7999 29.7998 13.6999 28.8998 14.1999 27.6998C14.3999 27.1998 14.4999 26.6998 14.4999 26.1998C14.4999 25.9998 14.3999 25.7998 14.1999 25.6998C11.7999 24.5998 10.1999 22.6998 8.89992 20.3998C8.49992 19.6998 8.29992 18.8998 7.79992 18.1998C7.29992 17.5998 6.49992 17.2998 5.89992 16.7998C2.79992 14.3998 0.899922 11.2998 0.199922 7.59982C-0.300078 5.39982 0.99992 3.79983 3.29992 3.69983C3.99992 3.69983 4.69992 3.69983 5.39992 3.69983C5.69992 3.69983 5.89992 3.59983 5.79992 3.19983C5.79992 2.89983 5.79992 2.49983 5.89992 2.19983C6.19992 1.39983 6.89992 0.799805 7.79992 0.799805C14.1999 0.799805 20.5999 0.799805 26.9999 0.799805C28.1999 0.799805 28.9999 1.5998 28.9999 2.7998C28.9999 2.8998 28.9999 2.99983 28.9999 3.19983C28.9999 3.49983 29.0999 3.59982 29.3999 3.59982C30.2999 3.59982 31.1999 3.59982 32.0999 3.59982C33.7999 3.79982 35.0999 5.39982 34.6999 7.09982C33.7999 11.6998 31.3999 15.2998 27.3999 17.6998C27.0999 17.8998 26.9999 17.9998 26.7999 18.2998C25.9999 20.0998 24.9999 21.7998 23.5999 23.2998C22.7999 24.0998 21.8999 24.8998 20.7999 25.3998C20.3999 25.5998 20.2999 25.7998 20.2999 26.1998C20.3999 27.9998 21.5999 29.5998 23.2999 30.0998C24.1999 30.3998 24.3999 30.5998 24.3999 31.4998C24.3999 32.5998 24.3999 33.6998 24.3999 34.8998C24.3999 35.3998 24.5999 35.4998 24.9999 35.4998C25.6999 35.4998 26.3999 35.3998 27.1999 35.6998C28.2999 36.0998 28.9999 37.0998 28.9999 38.2998C28.9999 38.9998 28.9999 39.7998 28.9999 40.4998C28.9999 41.2998 28.6999 41.5998 27.8999 41.5998C24.3999 41.4998 20.8999 41.4998 17.3999 41.4998ZM17.3999 2.7998C14.3999 2.7998 11.3999 2.7998 8.29992 2.7998C7.69992 2.7998 7.69992 2.79981 7.69992 3.39981C7.69992 4.89981 7.69992 6.49982 7.69992 7.99982C7.69992 8.99982 7.79992 9.99981 7.89992 10.8998C8.19992 13.3998 8.79992 15.7998 9.89992 17.9998C10.7999 19.8998 11.8999 21.6998 13.5999 22.8998C15.3999 24.2998 17.4999 24.6998 19.5999 23.7998C21.1999 23.0998 22.3999 21.8998 23.3999 20.4998C25.6999 17.1998 26.5999 13.4998 26.8999 9.59982C27.0999 7.49982 26.9999 5.49981 26.9999 3.39981C26.9999 2.79981 26.9999 2.7998 26.3999 2.7998C23.3999 2.7998 20.3999 2.7998 17.3999 2.7998ZM17.3999 39.5998C20.2999 39.5998 23.2999 39.5998 26.1999 39.5998C27.0999 39.5998 26.9999 39.6998 26.9999 38.7998C26.9999 37.7998 26.6999 37.4998 25.6999 37.4998C20.0999 37.4998 14.5999 37.4998 8.99992 37.4998C8.89992 37.4998 8.79992 37.4998 8.59992 37.4998C8.09992 37.4998 7.69992 37.8998 7.69992 38.3998C7.69992 38.5998 7.69992 38.7998 7.69992 38.9998C7.69992 39.5998 7.69992 39.5998 8.29992 39.5998C11.3999 39.5998 14.3999 39.5998 17.3999 39.5998ZM17.3999 35.4998C18.8999 35.4998 20.4999 35.4998 21.9999 35.4998C22.3999 35.4998 22.4999 35.3998 22.4999 34.9998C22.4999 34.1998 22.4999 33.3998 22.4999 32.5998C22.4999 32.2998 22.3999 32.1998 22.0999 32.1998C18.9999 32.1998 15.7999 32.1998 12.6999 32.1998C12.3999 32.1998 12.2999 32.2998 12.2999 32.5998C12.2999 33.3998 12.2999 34.1998 12.2999 34.9998C12.2999 35.3998 12.3999 35.5998 12.7999 35.4998C14.2999 35.4998 15.8999 35.4998 17.3999 35.4998ZM6.59992 14.8998C6.59992 14.6998 6.59992 14.6998 6.59992 14.5998C5.99992 12.1998 5.69992 9.79981 5.69992 7.39981C5.69992 6.89981 5.69992 6.49982 5.69992 5.99982C5.69992 5.69982 5.59992 5.59982 5.29992 5.59982C4.49992 5.59982 3.59992 5.59982 2.79992 5.59982C2.19992 5.59982 1.69992 6.1998 1.89992 6.7998C2.39992 9.1998 3.29992 11.2998 4.89992 13.1998C5.39992 13.7998 5.89992 14.3998 6.59992 14.8998ZM28.0999 14.7998C28.2999 14.7998 28.4999 14.5998 28.5999 14.4998C30.7999 12.4998 32.1999 9.89982 32.7999 6.99982C32.8999 6.29982 32.4999 5.69983 31.7999 5.69983C31.0999 5.69983 30.2999 5.69983 29.5999 5.69983C29.0999 5.69983 28.9999 5.7998 28.9999 6.2998C28.9999 8.0998 28.9999 9.89983 28.6999 11.6998C28.5999 12.6998 28.3999 13.6998 28.0999 14.7998ZM19.8999 30.1998C19.8999 29.9998 19.7999 29.8998 19.6999 29.7998C19.1999 29.1998 18.8999 28.3998 18.6999 27.5998C18.5999 27.1998 18.6999 26.4998 18.2999 26.2998C17.8999 26.0998 17.3999 26.2998 16.8999 26.1998C16.5999 26.1998 16.3999 26.2998 16.3999 26.5998C16.2999 27.7998 15.8999 28.8998 15.0999 29.8998C15.0999 29.9998 14.9999 29.9998 15.0999 30.0998C16.5999 30.1998 18.1999 30.1998 19.8999 30.1998Z" fill="#E6D11D"/>
<path d="M13.4 16.1997C13.5 15.4997 13.6 14.6997 13.8 13.8997C13.9 13.5997 13.8 13.4997 13.6 13.2997C13 12.6997 12.5 12.1997 11.9 11.5997C11.6 11.2997 11.4 10.9997 11.6 10.4997C11.7 9.99969 12.1 9.89968 12.5 9.79968C13.3 9.69968 14 9.49969 14.8 9.39969C15.1 9.39969 15.2 9.19969 15.3 8.99969C15.6 8.29969 16 7.69969 16.3 6.99969C16.5 6.59969 16.8 6.19971 17.3 6.19971C17.8 6.19971 18.1 6.49969 18.3 6.99969C18.6 7.59969 18.9 8.29969 19.2 8.89969C19.3 9.19969 19.5 9.29968 19.8 9.29968C20.6 9.39968 21.3 9.4997 22.1 9.5997C22.5 9.6997 22.9 9.79968 23 10.2997C23.2 10.7997 23 11.0997 22.7 11.3997C22.1 11.9997 21.6 12.4997 21 13.0997C20.8 13.2997 20.7 13.4997 20.8 13.6997C20.9 14.3997 21.1 15.0997 21.2 15.7997C21.3 16.5997 21.1 17.0997 20.4 17.1997C20.1 17.2997 19.9 17.1997 19.7 16.9997C19 16.6997 18.4 16.2997 17.7 15.8997C17.4 15.6997 17.2 15.6997 16.9 15.8997C16.2 16.2997 15.5 16.5997 14.9 16.9997C14.1 17.6997 13.4 17.1997 13.4 16.1997ZM14.7 11.3997C14.7 11.4997 14.7 11.4997 14.7 11.5997C14.8 11.6997 14.9 11.7997 15 11.8997C15.8 12.4997 16 13.1997 15.8 14.0997C15.8 14.1997 15.7 14.3997 15.8 14.4997C15.9 14.5997 16.1 14.4997 16.2 14.3997C16.9 13.9997 17.5 13.6997 18.3 14.2997C18.5 14.3997 18.8 14.6997 18.9 14.4997C19.1 14.3997 18.9 13.9997 18.9 13.7997C18.7 12.9997 19 12.3997 19.6 11.9997C19.8 11.8997 20 11.7997 20 11.5997C20 11.5997 17.4 9.79971 17.3 9.69971C17 10.9997 16.1 11.4997 14.7 11.3997Z" fill="#E6D11D"/>
</svg>
